  0
SECTION
  2
HEADER
  9
$ACADVER
  1
AC1014
  9
$HANDSEED
  5
FFFF
  9
$MEASUREMENT
 70
     1
  0
ENDSEC
  0
SECTION
  2
TABLES
  0
TABLE
  2
VPORT
  5
8
330
0
100
AcDbSymbolTable
 70
     4
  0
VPORT
  5
2E
330
8
100
AcDbSymbolTableRecord
100
AcDbViewportTableRecord
  2
*ACTIVE
 70
     0
 10
0.0
 20
0.0
 11
1.0
 21
1.0
 12
210.0
 22
148.5
 13
0.0
 23
0.0
 14
10.0
 24
10.0
 15
10.0
 25
10.0
 16
0.0
 26
0.0
 36
1.0
 17
0.0
 27
0.0
 37
0.0
 40
341.0
 41
1.24
 42
50.0
 43
0.0
 44
0.0
 50
0.0
 51
0.0
 71
     0
 72
   100
 73
     1
 74
     3
 75
     0
 76
     0
 77
     0
 78
     0
  0
ENDTAB
  0
TABLE
  2
LTYPE
  5
5
330
0
100
AcDbSymbolTable
 70
     1
  0
LTYPE
  5
14
330
5
100
AcDbSymbolTableRecord
100
AcDbLinetypeTableRecord
  2
BYBLOCK
 70
     0
  3

 72
    65
 73
     0
 40
0.0
  0
LTYPE
  5
15
330
5
100
AcDbSymbolTableRecord
100
AcDbLinetypeTableRecord
  2
BYLAYER
 70
     0
  3

 72
    65
 73
     0
 40
0.0
  0
LTYPE
  5
16
330
5
100
AcDbSymbolTableRecord
100
AcDbLinetypeTableRecord
  2
CONTINUOUS
 70
     0
  3
Solid line
 72
    65
 73
     0
 40
0.0
  0
ENDTAB
  0
TABLE
  2
LAYER
  5
2
100
AcDbSymbolTable
 70
2
  0
LAYER
  5
50
100
AcDbSymbolTableRecord
100
AcDbLayerTableRecord
  2
0
 70
0
  6
CONTINUOUS
  0
LAYER
  5
51
100
AcDbSymbolTableRecord
100
AcDbLayerTableRecord
  2
Ebene_1
 70
0
  6
CONTINUOUS
  0
ENDTAB
  0
TABLE
  2
STYLE
  5
3
330
0
100
AcDbSymbolTable
 70
     1
  0
STYLE
  5
11
330
3
100
AcDbSymbolTableRecord
100
AcDbTextStyleTableRecord
  2
STANDARD
 70
     0
 40
0.0
 41
1.0
 50
0.0
 71
     0
 42
2.5
  3
txt
  4

  0
ENDTAB
  0
TABLE
  2
VIEW
  5
6
330
0
100
AcDbSymbolTable
 70
     0
  0
ENDTAB
  0
TABLE
  2
UCS
  5
7
330
0
100
AcDbSymbolTable
 70
     0
  0
ENDTAB
  0
TABLE
  2
APPID
  5
9
330
0
100
AcDbSymbolTable
 70
     2
  0
APPID
  5
12
330
9
100
AcDbSymbolTableRecord
100
AcDbRegAppTableRecord
  2
ACAD
 70
     0
  0
ENDTAB
  0
TABLE
  2
DIMSTYLE
  5
A
330
0
100
AcDbSymbolTable
 70
     1
  0
DIMSTYLE
105
27
330
A
100
AcDbSymbolTableRecord
100
AcDbDimStyleTableRecord
  2
ISO-25
 70
     0
  3

  4

  5

  6

  7

 40
1.0
 41
2.5
 42
0.625
 43
3.75
 44
1.25
 45
0.0
 46
0.0
 47
0.0
 48
0.0
140
2.5
141
2.5
142
0.0
143
0.03937007874016
144
1.0
145
0.0
146
1.0
147
0.625
 71
     0
 72
     0
 73
     0
 74
     0
 75
     0
 76
     0
 77
     1
 78
     8
170
     0
171
     3
172
     1
173
     0
174
     0
175
     0
176
     0
177
     0
178
     0
270
     2
271
     2
272
     2
273
     2
274
     3
340
11
275
     0
280
     0
281
     0
282
     0
283
     0
284
     8
285
     0
286
     0
287
     3
288
     0
  0
ENDTAB
  0
TABLE
  2
BLOCK_RECORD
  5
1
330
0
100
AcDbSymbolTable
 70
     1
  0
BLOCK_RECORD
  5
1F
330
1
100
AcDbSymbolTableRecord
100
AcDbBlockTableRecord
  2
*MODEL_SPACE
  0
BLOCK_RECORD
  5
1B
330
1
100
AcDbSymbolTableRecord
100
AcDbBlockTableRecord
  2
*PAPER_SPACE
  0
ENDTAB
  0
ENDSEC
  0
SECTION
  2
BLOCKS
  0
BLOCK
  5
20
330
1F
100
AcDbEntity
  8
0
100
AcDbBlockBegin
  2
*MODEL_SPACE
 70
     0
 10
0.0
 20
0.0
 30
0.0
  3
*MODEL_SPACE
  1

  0
ENDBLK
  5
21
330
1F
100
AcDbEntity
  8
0
100
AcDbBlockEnd
  0
BLOCK
  5
1C
330
1B
100
AcDbEntity
 67
     1
  8
0
100
AcDbBlockBegin
  2
*PAPER_SPACE
  1

  0
ENDBLK
  5
1D
330
1B
100
AcDbEntity
 67
     1
  8
0
100
AcDbBlockEnd
  0
ENDSEC
  0
SECTION
  2
ENTITIES
  0
LINE
  5
100
100
AcDbEntity
  8
Ebene_1
 62
7
100
AcDbLine
 10
0.373340
 20
507.397795
 30
0.0
 11
0.373340
 21
437.397883
 31
0.0
  0
LINE
  5
101
100
AcDbEntity
  8
Ebene_1
 62
7
100
AcDbLine
 10
40.373289
 20
437.397883
 30
0.0
 11
40.373289
 21
507.397795
 31
0.0
  0
LINE
  5
102
100
AcDbEntity
  8
Ebene_1
 62
7
100
AcDbLine
 10
40.373289
 20
507.397795
 30
0.0
 11
0.373340
 21
507.397795
 31
0.0
  0
SPLINE
  5
103
100
AcDbEntity
  8
Ebene_1
 62
7
100
AcDbSpline
 70
8
 71
3
 72
8
 73
4
 74
0
 40
0
 40
0
 40
0
 40
0
 40
1
 40
1
 40
1
 40
1
 10
0.373340
 20
437.397883
 30
0.0
 10
0.375137
 20
426.353472
 30
0.0
 10
9.328904
 20
417.401161
 30
0.0
 10
20.373315
 20
417.401161
 30
0.0
  0
SPLINE
  5
104
100
AcDbEntity
  8
Ebene_1
 62
7
100
AcDbSpline
 70
8
 71
3
 72
8
 73
4
 74
0
 40
0
 40
0
 40
0
 40
0
 40
1
 40
1
 40
1
 40
1
 10
20.373315
 20
417.401161
 30
0.0
 10
31.417725
 20
417.401161
 30
0.0
 10
40.371493
 20
426.353472
 30
0.0
 10
40.373289
 20
437.397883
 30
0.0
  0
SPLINE
  5
105
100
AcDbEntity
  8
Ebene_1
 62
7
100
AcDbSpline
 70
8
 71
3
 72
8
 73
4
 74
0
 40
0
 40
0
 40
0
 40
0
 40
1
 40
1
 40
1
 40
1
 10
24.623309
 20
437.397883
 30
0.0
 10
24.624067
 20
438.916764
 30
0.0
 10
23.814188
 20
440.320593
 30
0.0
 10
22.498924
 20
441.080253
 30
0.0
  0
SPLINE
  5
106
100
AcDbEntity
  8
Ebene_1
 62
7
100
AcDbSpline
 70
8
 71
3
 72
8
 73
4
 74
0
 40
0
 40
0
 40
0
 40
0
 40
1
 40
1
 40
1
 40
1
 10
22.498924
 20
441.080253
 30
0.0
 10
21.183660
 20
441.839913
 30
0.0
 10
19.562969
 20
441.839913
 30
0.0
 10
18.247705
 20
441.080253
 30
0.0
  0
SPLINE
  5
107
100
AcDbEntity
  8
Ebene_1
 62
7
100
AcDbSpline
 70
8
 71
3
 72
8
 73
4
 74
0
 40
0
 40
0
 40
0
 40
0
 40
1
 40
1
 40
1
 40
1
 10
18.247705
 20
441.080253
 30
0.0
 10
16.932441
 20
440.320593
 30
0.0
 10
16.122563
 20
438.916764
 30
0.0
 10
16.123321
 20
437.397883
 30
0.0
  0
SPLINE
  5
108
100
AcDbEntity
  8
Ebene_1
 62
7
100
AcDbSpline
 70
8
 71
3
 72
8
 73
4
 74
0
 40
0
 40
0
 40
0
 40
0
 40
1
 40
1
 40
1
 40
1
 10
16.123321
 20
437.397883
 30
0.0
 10
16.122563
 20
435.879001
 30
0.0
 10
16.932441
 20
434.475172
 30
0.0
 10
18.247705
 20
433.715512
 30
0.0
  0
SPLINE
  5
109
100
AcDbEntity
  8
Ebene_1
 62
7
100
AcDbSpline
 70
8
 71
3
 72
8
 73
4
 74
0
 40
0
 40
0
 40
0
 40
0
 40
1
 40
1
 40
1
 40
1
 10
18.247705
 20
433.715512
 30
0.0
 10
19.562969
 20
432.955852
 30
0.0
 10
21.183660
 20
432.955852
 30
0.0
 10
22.498924
 20
433.715512
 30
0.0
  0
SPLINE
  5
10a
100
AcDbEntity
  8
Ebene_1
 62
7
100
AcDbSpline
 70
8
 71
3
 72
8
 73
4
 74
0
 40
0
 40
0
 40
0
 40
0
 40
1
 40
1
 40
1
 40
1
 10
22.498924
 20
433.715512
 30
0.0
 10
23.814188
 20
434.475172
 30
0.0
 10
24.624067
 20
435.879001
 30
0.0
 10
24.623309
 20
437.397883
 30
0.0
  0
LINE
  5
10b
100
AcDbEntity
  8
Ebene_1
 62
7
100
AcDbLine
 10
24.623309
 20
437.397883
 30
0.0
 11
24.623309
 21
437.397883
 31
0.0
  0
LINE
  5
10c
100
AcDbEntity
  8
Ebene_1
 62
7
100
AcDbLine
 10
457.131740
 20
297.867595
 30
0.0
 11
457.131740
 21
227.867683
 31
0.0
  0
LINE
  5
10d
100
AcDbEntity
  8
Ebene_1
 62
7
100
AcDbLine
 10
497.131689
 20
227.867683
 30
0.0
 11
497.131689
 21
297.867595
 31
0.0
  0
LINE
  5
10e
100
AcDbEntity
  8
Ebene_1
 62
7
100
AcDbLine
 10
497.131689
 20
297.867595
 30
0.0
 11
457.131740
 21
297.867595
 31
0.0
  0
SPLINE
  5
10f
100
AcDbEntity
  8
Ebene_1
 62
7
100
AcDbSpline
 70
8
 71
3
 72
8
 73
4
 74
0
 40
0
 40
0
 40
0
 40
0
 40
1
 40
1
 40
1
 40
1
 10
457.131740
 20
227.867683
 30
0.0
 10
457.133537
 20
216.823272
 30
0.0
 10
466.087304
 20
207.870961
 30
0.0
 10
477.131715
 20
207.870961
 30
0.0
  0
SPLINE
  5
110
100
AcDbEntity
  8
Ebene_1
 62
7
100
AcDbSpline
 70
8
 71
3
 72
8
 73
4
 74
0
 40
0
 40
0
 40
0
 40
0
 40
1
 40
1
 40
1
 40
1
 10
477.131715
 20
207.870961
 30
0.0
 10
488.176125
 20
207.870961
 30
0.0
 10
497.129893
 20
216.823272
 30
0.0
 10
497.131689
 20
227.867683
 30
0.0
  0
SPLINE
  5
111
100
AcDbEntity
  8
Ebene_1
 62
7
100
AcDbSpline
 70
8
 71
3
 72
8
 73
4
 74
0
 40
0
 40
0
 40
0
 40
0
 40
1
 40
1
 40
1
 40
1
 10
481.381709
 20
227.867683
 30
0.0
 10
481.382467
 20
229.386564
 30
0.0
 10
480.572588
 20
230.790393
 30
0.0
 10
479.257324
 20
231.550053
 30
0.0
  0
SPLINE
  5
112
100
AcDbEntity
  8
Ebene_1
 62
7
100
AcDbSpline
 70
8
 71
3
 72
8
 73
4
 74
0
 40
0
 40
0
 40
0
 40
0
 40
1
 40
1
 40
1
 40
1
 10
479.257324
 20
231.550053
 30
0.0
 10
477.942060
 20
232.309713
 30
0.0
 10
476.321369
 20
232.309713
 30
0.0
 10
475.006105
 20
231.550053
 30
0.0
  0
SPLINE
  5
113
100
AcDbEntity
  8
Ebene_1
 62
7
100
AcDbSpline
 70
8
 71
3
 72
8
 73
4
 74
0
 40
0
 40
0
 40
0
 40
0
 40
1
 40
1
 40
1
 40
1
 10
475.006105
 20
231.550053
 30
0.0
 10
473.690841
 20
230.790393
 30
0.0
 10
472.880963
 20
229.386564
 30
0.0
 10
472.881721
 20
227.867683
 30
0.0
  0
SPLINE
  5
114
100
AcDbEntity
  8
Ebene_1
 62
7
100
AcDbSpline
 70
8
 71
3
 72
8
 73
4
 74
0
 40
0
 40
0
 40
0
 40
0
 40
1
 40
1
 40
1
 40
1
 10
472.881721
 20
227.867683
 30
0.0
 10
472.880963
 20
226.348801
 30
0.0
 10
473.690841
 20
224.944972
 30
0.0
 10
475.006105
 20
224.185312
 30
0.0
  0
SPLINE
  5
115
100
AcDbEntity
  8
Ebene_1
 62
7
100
AcDbSpline
 70
8
 71
3
 72
8
 73
4
 74
0
 40
0
 40
0
 40
0
 40
0
 40
1
 40
1
 40
1
 40
1
 10
475.006105
 20
224.185312
 30
0.0
 10
476.321369
 20
223.425652
 30
0.0
 10
477.942060
 20
223.425652
 30
0.0
 10
479.257324
 20
224.185312
 30
0.0
  0
SPLINE
  5
116
100
AcDbEntity
  8
Ebene_1
 62
7
100
AcDbSpline
 70
8
 71
3
 72
8
 73
4
 74
0
 40
0
 40
0
 40
0
 40
0
 40
1
 40
1
 40
1
 40
1
 10
479.257324
 20
224.185312
 30
0.0
 10
480.572588
 20
224.944972
 30
0.0
 10
481.382467
 20
226.348801
 30
0.0
 10
481.381709
 20
227.867683
 30
0.0
  0
LINE
  5
117
100
AcDbEntity
  8
Ebene_1
 62
7
100
AcDbLine
 10
481.381709
 20
227.867683
 30
0.0
 11
481.381709
 21
227.867683
 31
0.0
  0
LINE
  5
118
100
AcDbEntity
  8
Ebene_1
 62
7
100
AcDbLine
 10
1.440840
 20
199.853595
 30
0.0
 11
1.440840
 21
129.853683
 31
0.0
  0
LINE
  5
119
100
AcDbEntity
  8
Ebene_1
 62
7
100
AcDbLine
 10
41.440789
 20
129.853683
 30
0.0
 11
41.440789
 21
199.853595
 31
0.0
  0
LINE
  5
11a
100
AcDbEntity
  8
Ebene_1
 62
7
100
AcDbLine
 10
41.440789
 20
199.853595
 30
0.0
 11
1.440840
 21
199.853595
 31
0.0
  0
SPLINE
  5
11b
100
AcDbEntity
  8
Ebene_1
 62
7
100
AcDbSpline
 70
8
 71
3
 72
8
 73
4
 74
0
 40
0
 40
0
 40
0
 40
0
 40
1
 40
1
 40
1
 40
1
 10
1.440840
 20
129.853683
 30
0.0
 10
1.442637
 20
118.809272
 30
0.0
 10
10.396404
 20
109.856961
 30
0.0
 10
21.440815
 20
109.856961
 30
0.0
  0
SPLINE
  5
11c
100
AcDbEntity
  8
Ebene_1
 62
7
100
AcDbSpline
 70
8
 71
3
 72
8
 73
4
 74
0
 40
0
 40
0
 40
0
 40
0
 40
1
 40
1
 40
1
 40
1
 10
21.440815
 20
109.856961
 30
0.0
 10
32.485225
 20
109.856961
 30
0.0
 10
41.438993
 20
118.809272
 30
0.0
 10
41.440789
 20
129.853683
 30
0.0
  0
SPLINE
  5
11d
100
AcDbEntity
  8
Ebene_1
 62
7
100
AcDbSpline
 70
8
 71
3
 72
8
 73
4
 74
0
 40
0
 40
0
 40
0
 40
0
 40
1
 40
1
 40
1
 40
1
 10
25.690809
 20
129.853683
 30
0.0
 10
25.691567
 20
131.372564
 30
0.0
 10
24.881688
 20
132.776393
 30
0.0
 10
23.566424
 20
133.536053
 30
0.0
  0
SPLINE
  5
11e
100
AcDbEntity
  8
Ebene_1
 62
7
100
AcDbSpline
 70
8
 71
3
 72
8
 73
4
 74
0
 40
0
 40
0
 40
0
 40
0
 40
1
 40
1
 40
1
 40
1
 10
23.566424
 20
133.536053
 30
0.0
 10
22.251160
 20
134.295713
 30
0.0
 10
20.630469
 20
134.295713
 30
0.0
 10
19.315205
 20
133.536053
 30
0.0
  0
SPLINE
  5
11f
100
AcDbEntity
  8
Ebene_1
 62
7
100
AcDbSpline
 70
8
 71
3
 72
8
 73
4
 74
0
 40
0
 40
0
 40
0
 40
0
 40
1
 40
1
 40
1
 40
1
 10
19.315205
 20
133.536053
 30
0.0
 10
17.999941
 20
132.776393
 30
0.0
 10
17.190063
 20
131.372564
 30
0.0
 10
17.190821
 20
129.853683
 30
0.0
  0
SPLINE
  5
120
100
AcDbEntity
  8
Ebene_1
 62
7
100
AcDbSpline
 70
8
 71
3
 72
8
 73
4
 74
0
 40
0
 40
0
 40
0
 40
0
 40
1
 40
1
 40
1
 40
1
 10
17.190821
 20
129.853683
 30
0.0
 10
17.190063
 20
128.334801
 30
0.0
 10
17.999941
 20
126.930972
 30
0.0
 10
19.315205
 20
126.171312
 30
0.0
  0
SPLINE
  5
121
100
AcDbEntity
  8
Ebene_1
 62
7
100
AcDbSpline
 70
8
 71
3
 72
8
 73
4
 74
0
 40
0
 40
0
 40
0
 40
0
 40
1
 40
1
 40
1
 40
1
 10
19.315205
 20
126.171312
 30
0.0
 10
20.630469
 20
125.411652
 30
0.0
 10
22.251160
 20
125.411652
 30
0.0
 10
23.566424
 20
126.171312
 30
0.0
  0
SPLINE
  5
122
100
AcDbEntity
  8
Ebene_1
 62
7
100
AcDbSpline
 70
8
 71
3
 72
8
 73
4
 74
0
 40
0
 40
0
 40
0
 40
0
 40
1
 40
1
 40
1
 40
1
 10
23.566424
 20
126.171312
 30
0.0
 10
24.881688
 20
126.930972
 30
0.0
 10
25.691567
 20
128.334801
 30
0.0
 10
25.690809
 20
129.853683
 30
0.0
  0
LINE
  5
123
100
AcDbEntity
  8
Ebene_1
 62
7
100
AcDbLine
 10
25.690809
 20
129.853683
 30
0.0
 11
25.690809
 21
129.853683
 31
0.0
  0
LINE
  5
124
100
AcDbEntity
  8
Ebene_1
 62
7
100
AcDbLine
 10
410.133740
 20
195.267595
 30
0.0
 11
410.133740
 21
125.267683
 31
0.0
  0
LINE
  5
125
100
AcDbEntity
  8
Ebene_1
 62
7
100
AcDbLine
 10
450.133689
 20
125.267683
 30
0.0
 11
450.133689
 21
195.267595
 31
0.0
  0
LINE
  5
126
100
AcDbEntity
  8
Ebene_1
 62
7
100
AcDbLine
 10
450.133689
 20
195.267595
 30
0.0
 11
410.133740
 21
195.267595
 31
0.0
  0
SPLINE
  5
127
100
AcDbEntity
  8
Ebene_1
 62
7
100
AcDbSpline
 70
8
 71
3
 72
8
 73
4
 74
0
 40
0
 40
0
 40
0
 40
0
 40
1
 40
1
 40
1
 40
1
 10
410.133740
 20
125.267683
 30
0.0
 10
410.135537
 20
114.223272
 30
0.0
 10
419.089304
 20
105.270961
 30
0.0
 10
430.133715
 20
105.270961
 30
0.0
  0
SPLINE
  5
128
100
AcDbEntity
  8
Ebene_1
 62
7
100
AcDbSpline
 70
8
 71
3
 72
8
 73
4
 74
0
 40
0
 40
0
 40
0
 40
0
 40
1
 40
1
 40
1
 40
1
 10
430.133715
 20
105.270961
 30
0.0
 10
441.178125
 20
105.270961
 30
0.0
 10
450.131893
 20
114.223272
 30
0.0
 10
450.133689
 20
125.267683
 30
0.0
  0
SPLINE
  5
129
100
AcDbEntity
  8
Ebene_1
 62
7
100
AcDbSpline
 70
8
 71
3
 72
8
 73
4
 74
0
 40
0
 40
0
 40
0
 40
0
 40
1
 40
1
 40
1
 40
1
 10
434.383709
 20
125.267683
 30
0.0
 10
434.384467
 20
126.786564
 30
0.0
 10
433.574588
 20
128.190393
 30
0.0
 10
432.259324
 20
128.950053
 30
0.0
  0
SPLINE
  5
12a
100
AcDbEntity
  8
Ebene_1
 62
7
100
AcDbSpline
 70
8
 71
3
 72
8
 73
4
 74
0
 40
0
 40
0
 40
0
 40
0
 40
1
 40
1
 40
1
 40
1
 10
432.259324
 20
128.950053
 30
0.0
 10
430.944060
 20
129.709713
 30
0.0
 10
429.323369
 20
129.709713
 30
0.0
 10
428.008105
 20
128.950053
 30
0.0
  0
SPLINE
  5
12b
100
AcDbEntity
  8
Ebene_1
 62
7
100
AcDbSpline
 70
8
 71
3
 72
8
 73
4
 74
0
 40
0
 40
0
 40
0
 40
0
 40
1
 40
1
 40
1
 40
1
 10
428.008105
 20
128.950053
 30
0.0
 10
426.692841
 20
128.190393
 30
0.0
 10
425.882963
 20
126.786564
 30
0.0
 10
425.883721
 20
125.267683
 30
0.0
  0
SPLINE
  5
12c
100
AcDbEntity
  8
Ebene_1
 62
7
100
AcDbSpline
 70
8
 71
3
 72
8
 73
4
 74
0
 40
0
 40
0
 40
0
 40
0
 40
1
 40
1
 40
1
 40
1
 10
425.883721
 20
125.267683
 30
0.0
 10
425.882963
 20
123.748801
 30
0.0
 10
426.692841
 20
122.344972
 30
0.0
 10
428.008105
 20
121.585312
 30
0.0
  0
SPLINE
  5
12d
100
AcDbEntity
  8
Ebene_1
 62
7
100
AcDbSpline
 70
8
 71
3
 72
8
 73
4
 74
0
 40
0
 40
0
 40
0
 40
0
 40
1
 40
1
 40
1
 40
1
 10
428.008105
 20
121.585312
 30
0.0
 10
429.323369
 20
120.825652
 30
0.0
 10
430.944060
 20
120.825652
 30
0.0
 10
432.259324
 20
121.585312
 30
0.0
  0
SPLINE
  5
12e
100
AcDbEntity
  8
Ebene_1
 62
7
100
AcDbSpline
 70
8
 71
3
 72
8
 73
4
 74
0
 40
0
 40
0
 40
0
 40
0
 40
1
 40
1
 40
1
 40
1
 10
432.259324
 20
121.585312
 30
0.0
 10
433.574588
 20
122.344972
 30
0.0
 10
434.384467
 20
123.748801
 30
0.0
 10
434.383709
 20
125.267683
 30
0.0
  0
LINE
  5
12f
100
AcDbEntity
  8
Ebene_1
 62
7
100
AcDbLine
 10
434.383709
 20
125.267683
 30
0.0
 11
434.383709
 21
125.267683
 31
0.0
  0
LINE
  5
130
100
AcDbEntity
  8
Ebene_1
 62
7
100
AcDbLine
 10
72.298357
 20
452.098890
 30
0.0
 11
0.132448
 21
306.329670
 31
0.0
  0
LINE
  5
131
100
AcDbEntity
  8
Ebene_1
 62
7
100
AcDbLine
 10
0.132448
 20
306.329670
 30
0.0
 11
319.464045
 21
306.329670
 31
0.0
  0
LINE
  5
132
100
AcDbEntity
  8
Ebene_1
 62
7
100
AcDbLine
 10
247.298137
 20
452.098890
 30
0.0
 11
72.298357
 21
452.098890
 31
0.0
  0
LINE
  5
133
100
AcDbEntity
  8
Ebene_1
 62
7
100
AcDbLine
 10
319.464045
 20
306.329670
 30
0.0
 11
247.298137
 21
452.098890
 31
0.0
  0
LINE
  5
134
100
AcDbEntity
  8
Ebene_1
 62
7
100
AcDbLine
 10
72.298357
 20
459.097690
 30
0.0
 11
0.132448
 21
604.866910
 31
0.0
  0
LINE
  5
135
100
AcDbEntity
  8
Ebene_1
 62
7
100
AcDbLine
 10
0.132448
 20
604.866910
 30
0.0
 11
319.464045
 21
604.866910
 31
0.0
  0
LINE
  5
136
100
AcDbEntity
  8
Ebene_1
 62
7
100
AcDbLine
 10
247.298137
 20
459.097690
 30
0.0
 11
72.298357
 21
459.097690
 31
0.0
  0
LINE
  5
137
100
AcDbEntity
  8
Ebene_1
 62
7
100
AcDbLine
 10
319.464045
 20
604.866910
 30
0.0
 11
247.298137
 21
459.097690
 31
0.0
  0
LINE
  5
138
100
AcDbEntity
  8
Ebene_1
 62
7
100
AcDbLine
 10
326.463999
 20
304.867729
 30
0.0
 11
501.463788
 21
304.867729
 31
0.0
  0
LINE
  5
139
100
AcDbEntity
  8
Ebene_1
 62
7
100
AcDbLine
 10
501.463788
 20
304.867729
 30
0.0
 11
501.463788
 21
604.867352
 31
0.0
  0
LINE
  5
13a
100
AcDbEntity
  8
Ebene_1
 62
7
100
AcDbLine
 10
326.463999
 20
604.867352
 30
0.0
 11
326.463999
 21
304.867729
 31
0.0
  0
LINE
  5
13b
100
AcDbEntity
  8
Ebene_1
 62
7
100
AcDbLine
 10
501.463788
 20
604.867352
 30
0.0
 11
326.463999
 21
604.867352
 31
0.0
  0
SPLINE
  5
13c
100
AcDbEntity
  8
Ebene_1
 62
7
100
AcDbSpline
 70
8
 71
3
 72
8
 73
4
 74
0
 40
0
 40
0
 40
0
 40
0
 40
1
 40
1
 40
1
 40
1
 10
413.963889
 20
517.367462
 30
0.0
 10
391.634818
 20
517.367462
 30
0.0
 10
371.001905
 20
505.455044
 30
0.0
 10
359.837370
 20
486.117501
 30
0.0
  0
SPLINE
  5
13d
100
AcDbEntity
  8
Ebene_1
 62
7
100
AcDbSpline
 70
8
 71
3
 72
8
 73
4
 74
0
 40
0
 40
0
 40
0
 40
0
 40
1
 40
1
 40
1
 40
1
 10
359.837370
 20
486.117501
 30
0.0
 10
348.672834
 20
466.779959
 30
0.0
 10
348.672834
 20
442.955124
 30
0.0
 10
359.837370
 20
423.617581
 30
0.0
  0
SPLINE
  5
13e
100
AcDbEntity
  8
Ebene_1
 62
7
100
AcDbSpline
 70
8
 71
3
 72
8
 73
4
 74
0
 40
0
 40
0
 40
0
 40
0
 40
1
 40
1
 40
1
 40
1
 10
359.837370
 20
423.617581
 30
0.0
 10
371.001905
 20
404.280038
 30
0.0
 10
391.634818
 20
392.367621
 30
0.0
 10
413.963889
 20
392.367621
 30
0.0
  0
SPLINE
  5
13f
100
AcDbEntity
  8
Ebene_1
 62
7
100
AcDbSpline
 70
8
 71
3
 72
8
 73
4
 74
0
 40
0
 40
0
 40
0
 40
0
 40
1
 40
1
 40
1
 40
1
 10
413.963889
 20
392.367621
 30
0.0
 10
436.292960
 20
392.367621
 30
0.0
 10
456.925872
 20
404.280038
 30
0.0
 10
468.090408
 20
423.617581
 30
0.0
  0
SPLINE
  5
140
100
AcDbEntity
  8
Ebene_1
 62
7
100
AcDbSpline
 70
8
 71
3
 72
8
 73
4
 74
0
 40
0
 40
0
 40
0
 40
0
 40
1
 40
1
 40
1
 40
1
 10
468.090408
 20
423.617581
 30
0.0
 10
479.254943
 20
442.955124
 30
0.0
 10
479.254943
 20
466.779959
 30
0.0
 10
468.090408
 20
486.117502
 30
0.0
  0
SPLINE
  5
141
100
AcDbEntity
  8
Ebene_1
 62
7
100
AcDbSpline
 70
8
 71
3
 72
8
 73
4
 74
0
 40
0
 40
0
 40
0
 40
0
 40
1
 40
1
 40
1
 40
1
 10
468.090408
 20
486.117502
 30
0.0
 10
456.925872
 20
505.455045
 30
0.0
 10
436.292960
 20
517.367462
 30
0.0
 10
413.963889
 20
517.367462
 30
0.0
  0
LINE
  5
142
100
AcDbEntity
  8
Ebene_1
 62
7
100
AcDbLine
 10
413.963889
 20
517.367462
 30
0.0
 11
413.963889
 21
517.367462
 31
0.0
  0
LINE
  5
143
100
AcDbEntity
  8
Ebene_1
 62
7
100
AcDbLine
 10
281.509614
 20
508.144052
 30
0.0
 11
281.509614
 21
470.769947
 31
0.0
  0
LINE
  5
144
100
AcDbEntity
  8
Ebene_1
 62
7
100
AcDbLine
 10
281.509614
 20
470.769947
 30
0.0
 11
281.509614
 21
470.769947
 31
0.0
  0
LINE
  5
145
100
AcDbEntity
  8
Ebene_1
 62
7
100
AcDbLine
 10
281.509614
 20
470.769947
 30
0.0
 11
321.509563
 21
449.024772
 31
0.0
  0
LINE
  5
146
100
AcDbEntity
  8
Ebene_1
 62
7
100
AcDbLine
 10
321.509563
 20
449.024772
 30
0.0
 11
321.509563
 21
449.024772
 31
0.0
  0
LINE
  5
147
100
AcDbEntity
  8
Ebene_1
 62
7
100
AcDbLine
 10
321.509563
 20
449.024772
 30
0.0
 11
321.509563
 21
508.144052
 31
0.0
  0
LINE
  5
148
100
AcDbEntity
  8
Ebene_1
 62
7
100
AcDbLine
 10
321.509563
 20
508.144052
 30
0.0
 11
321.509563
 21
508.144052
 31
0.0
  0
SPLINE
  5
149
100
AcDbEntity
  8
Ebene_1
 62
7
100
AcDbSpline
 70
8
 71
3
 72
8
 73
4
 74
0
 40
0
 40
0
 40
0
 40
0
 40
1
 40
1
 40
1
 40
1
 10
321.509563
 20
508.144052
 30
0.0
 10
321.507711
 20
519.188469
 30
0.0
 10
312.554000
 20
528.140764
 30
0.0
 10
301.509588
 20
528.140764
 30
0.0
  0
SPLINE
  5
14a
100
AcDbEntity
  8
Ebene_1
 62
7
100
AcDbSpline
 70
8
 71
3
 72
8
 73
4
 74
0
 40
0
 40
0
 40
0
 40
0
 40
1
 40
1
 40
1
 40
1
 10
301.509588
 20
528.140764
 30
0.0
 10
290.465177
 20
528.140764
 30
0.0
 10
281.511410
 20
519.188469
 30
0.0
 10
281.509614
 20
508.144052
 30
0.0
  0
LINE
  5
14b
100
AcDbEntity
  8
Ebene_1
 62
7
100
AcDbLine
 10
281.509614
 20
508.144052
 30
0.0
 11
281.509614
 21
508.144052
 31
0.0
  0
SPLINE
  5
14c
100
AcDbEntity
  8
Ebene_1
 62
7
100
AcDbSpline
 70
8
 71
3
 72
8
 73
4
 74
0
 40
0
 40
0
 40
0
 40
0
 40
1
 40
1
 40
1
 40
1
 10
301.509588
 20
503.894058
 30
0.0
 10
303.028470
 20
503.893300
 30
0.0
 10
304.432299
 20
504.703179
 30
0.0
 10
305.191959
 20
506.018443
 30
0.0
  0
SPLINE
  5
14d
100
AcDbEntity
  8
Ebene_1
 62
7
100
AcDbSpline
 70
8
 71
3
 72
8
 73
4
 74
0
 40
0
 40
0
 40
0
 40
0
 40
1
 40
1
 40
1
 40
1
 10
305.191959
 20
506.018443
 30
0.0
 10
305.951619
 20
507.333707
 30
0.0
 10
305.951619
 20
508.954398
 30
0.0
 10
305.191959
 20
510.269662
 30
0.0
  0
SPLINE
  5
14e
100
AcDbEntity
  8
Ebene_1
 62
7
100
AcDbSpline
 70
8
 71
3
 72
8
 73
4
 74
0
 40
0
 40
0
 40
0
 40
0
 40
1
 40
1
 40
1
 40
1
 10
305.191959
 20
510.269662
 30
0.0
 10
304.432299
 20
511.584926
 30
0.0
 10
303.028470
 20
512.394804
 30
0.0
 10
301.509588
 20
512.394046
 30
0.0
  0
SPLINE
  5
14f
100
AcDbEntity
  8
Ebene_1
 62
7
100
AcDbSpline
 70
8
 71
3
 72
8
 73
4
 74
0
 40
0
 40
0
 40
0
 40
0
 40
1
 40
1
 40
1
 40
1
 10
301.509588
 20
512.394046
 30
0.0
 10
299.990593
 20
512.394975
 30
0.0
 10
298.586586
 20
511.585133
 30
0.0
 10
297.826820
 20
510.269799
 30
0.0
  0
SPLINE
  5
150
100
AcDbEntity
  8
Ebene_1
 62
7
100
AcDbSpline
 70
8
 71
3
 72
8
 73
4
 74
0
 40
0
 40
0
 40
0
 40
0
 40
1
 40
1
 40
1
 40
1
 10
297.826820
 20
510.269799
 30
0.0
 10
297.067055
 20
508.954465
 30
0.0
 10
297.067055
 20
507.333639
 30
0.0
 10
297.826820
 20
506.018305
 30
0.0
  0
SPLINE
  5
151
100
AcDbEntity
  8
Ebene_1
 62
7
100
AcDbSpline
 70
8
 71
3
 72
8
 73
4
 74
0
 40
0
 40
0
 40
0
 40
0
 40
1
 40
1
 40
1
 40
1
 10
297.826820
 20
506.018305
 30
0.0
 10
298.586586
 20
504.702971
 30
0.0
 10
299.990593
 20
503.893130
 30
0.0
 10
301.509588
 20
503.894058
 30
0.0
  0
LINE
  5
152
100
AcDbEntity
  8
Ebene_1
 62
7
100
AcDbLine
 10
301.509588
 20
503.894058
 30
0.0
 11
301.509588
 21
503.894058
 31
0.0
  0
LINE
  5
153
100
AcDbEntity
  8
Ebene_1
 62
7
100
AcDbLine
 10
321.509386
 20
404.650148
 30
0.0
 11
321.509386
 21
442.024253
 31
0.0
  0
LINE
  5
154
100
AcDbEntity
  8
Ebene_1
 62
7
100
AcDbLine
 10
321.509386
 20
442.024253
 30
0.0
 11
321.509386
 21
442.024253
 31
0.0
  0
LINE
  5
155
100
AcDbEntity
  8
Ebene_1
 62
7
100
AcDbLine
 10
321.509386
 20
442.024253
 30
0.0
 11
281.509437
 21
463.769428
 31
0.0
  0
LINE
  5
156
100
AcDbEntity
  8
Ebene_1
 62
7
100
AcDbLine
 10
281.509437
 20
463.769428
 30
0.0
 11
281.509437
 21
463.769428
 31
0.0
  0
LINE
  5
157
100
AcDbEntity
  8
Ebene_1
 62
7
100
AcDbLine
 10
281.509437
 20
463.769428
 30
0.0
 11
281.509437
 21
404.650148
 31
0.0
  0
LINE
  5
158
100
AcDbEntity
  8
Ebene_1
 62
7
100
AcDbLine
 10
281.509437
 20
404.650148
 30
0.0
 11
281.509437
 21
404.650148
 31
0.0
  0
SPLINE
  5
159
100
AcDbEntity
  8
Ebene_1
 62
7
100
AcDbSpline
 70
8
 71
3
 72
8
 73
4
 74
0
 40
0
 40
0
 40
0
 40
0
 40
1
 40
1
 40
1
 40
1
 10
281.509437
 20
404.650148
 30
0.0
 10
281.511289
 20
393.605731
 30
0.0
 10
290.465000
 20
384.653436
 30
0.0
 10
301.509412
 20
384.653436
 30
0.0
  0
SPLINE
  5
15a
100
AcDbEntity
  8
Ebene_1
 62
7
100
AcDbSpline
 70
8
 71
3
 72
8
 73
4
 74
0
 40
0
 40
0
 40
0
 40
0
 40
1
 40
1
 40
1
 40
1
 10
301.509412
 20
384.653436
 30
0.0
 10
312.553823
 20
384.653436
 30
0.0
 10
321.507590
 20
393.605731
 30
0.0
 10
321.509386
 20
404.650148
 30
0.0
  0
LINE
  5
15b
100
AcDbEntity
  8
Ebene_1
 62
7
100
AcDbLine
 10
321.509386
 20
404.650148
 30
0.0
 11
321.509386
 21
404.650148
 31
0.0
  0
SPLINE
  5
15c
100
AcDbEntity
  8
Ebene_1
 62
7
100
AcDbSpline
 70
8
 71
3
 72
8
 73
4
 74
0
 40
0
 40
0
 40
0
 40
0
 40
1
 40
1
 40
1
 40
1
 10
301.509412
 20
408.900142
 30
0.0
 10
299.990530
 20
408.900900
 30
0.0
 10
298.586701
 20
408.091021
 30
0.0
 10
297.827041
 20
406.775757
 30
0.0
  0
SPLINE
  5
15d
100
AcDbEntity
  8
Ebene_1
 62
7
100
AcDbSpline
 70
8
 71
3
 72
8
 73
4
 74
0
 40
0
 40
0
 40
0
 40
0
 40
1
 40
1
 40
1
 40
1
 10
297.827041
 20
406.775757
 30
0.0
 10
297.067381
 20
405.460493
 30
0.0
 10
297.067381
 20
403.839802
 30
0.0
 10
297.827041
 20
402.524538
 30
0.0
  0
SPLINE
  5
15e
100
AcDbEntity
  8
Ebene_1
 62
7
100
AcDbSpline
 70
8
 71
3
 72
8
 73
4
 74
0
 40
0
 40
0
 40
0
 40
0
 40
1
 40
1
 40
1
 40
1
 10
297.827041
 20
402.524538
 30
0.0
 10
298.586701
 20
401.209274
 30
0.0
 10
299.990530
 20
400.399396
 30
0.0
 10
301.509412
 20
400.400154
 30
0.0
  0
SPLINE
  5
15f
100
AcDbEntity
  8
Ebene_1
 62
7
100
AcDbSpline
 70
8
 71
3
 72
8
 73
4
 74
0
 40
0
 40
0
 40
0
 40
0
 40
1
 40
1
 40
1
 40
1
 10
301.509412
 20
400.400154
 30
0.0
 10
303.028407
 20
400.399225
 30
0.0
 10
304.432414
 20
401.209067
 30
0.0
 10
305.192180
 20
402.524401
 30
0.0
  0
SPLINE
  5
160
100
AcDbEntity
  8
Ebene_1
 62
7
100
AcDbSpline
 70
8
 71
3
 72
8
 73
4
 74
0
 40
0
 40
0
 40
0
 40
0
 40
1
 40
1
 40
1
 40
1
 10
305.192180
 20
402.524401
 30
0.0
 10
305.951945
 20
403.839735
 30
0.0
 10
305.951945
 20
405.460561
 30
0.0
 10
305.192180
 20
406.775895
 30
0.0
  0
SPLINE
  5
161
100
AcDbEntity
  8
Ebene_1
 62
7
100
AcDbSpline
 70
8
 71
3
 72
8
 73
4
 74
0
 40
0
 40
0
 40
0
 40
0
 40
1
 40
1
 40
1
 40
1
 10
305.192180
 20
406.775895
 30
0.0
 10
304.432414
 20
408.091229
 30
0.0
 10
303.028407
 20
408.901070
 30
0.0
 10
301.509412
 20
408.900142
 30
0.0
  0
LINE
  5
162
100
AcDbEntity
  8
Ebene_1
 62
7
100
AcDbLine
 10
301.509412
 20
408.900142
 30
0.0
 11
301.509412
 21
408.900142
 31
0.0
  0
LINE
  5
163
100
AcDbEntity
  8
Ebene_1
 62
7
100
AcDbLine
 10
75.132032
 20
145.867764
 30
0.0
 11
0.132125
 21
1.535838
 31
0.0
  0
LINE
  5
164
100
AcDbEntity
  8
Ebene_1
 62
7
100
AcDbLine
 10
0.132125
 20
1.535838
 30
0.0
 11
450.131566
 21
1.535838
 31
0.0
  0
LINE
  5
165
100
AcDbEntity
  8
Ebene_1
 62
7
100
AcDbLine
 10
375.131654
 20
145.867764
 30
0.0
 11
75.132032
 21
145.867764
 31
0.0
  0
LINE
  5
166
100
AcDbEntity
  8
Ebene_1
 62
7
100
AcDbLine
 10
450.131566
 20
1.535838
 30
0.0
 11
375.131654
 21
145.867764
 31
0.0
  0
LINE
  5
167
100
AcDbEntity
  8
Ebene_1
 62
7
100
AcDbLine
 10
375.131968
 20
153.535236
 30
0.0
 11
450.131875
 21
297.867162
 31
0.0
  0
LINE
  5
168
100
AcDbEntity
  8
Ebene_1
 62
7
100
AcDbLine
 10
450.131875
 20
297.867162
 30
0.0
 11
0.132434
 21
297.867162
 31
0.0
  0
LINE
  5
169
100
AcDbEntity
  8
Ebene_1
 62
7
100
AcDbLine
 10
75.132346
 20
153.535236
 30
0.0
 11
375.131968
 21
153.535236
 31
0.0
  0
LINE
  5
16a
100
AcDbEntity
  8
Ebene_1
 62
7
100
AcDbLine
 10
0.132434
 20
297.867162
 30
0.0
 11
75.132346
 21
153.535236
 31
0.0
  0
LINE
  5
16b
100
AcDbEntity
  8
Ebene_1
 62
7
100
AcDbLine
 10
456.233783
 20
92.967466
 30
0.0
 11
456.233783
 21
22.967554
 31
0.0
  0
LINE
  5
16c
100
AcDbEntity
  8
Ebene_1
 62
7
100
AcDbLine
 10
496.233734
 20
22.967554
 30
0.0
 11
496.233734
 21
92.967466
 31
0.0
  0
LINE
  5
16d
100
AcDbEntity
  8
Ebene_1
 62
7
100
AcDbLine
 10
496.233734
 20
92.967466
 30
0.0
 11
456.233783
 21
92.967466
 31
0.0
  0
SPLINE
  5
16e
100
AcDbEntity
  8
Ebene_1
 62
7
100
AcDbSpline
 70
8
 71
3
 72
8
 73
4
 74
0
 40
0
 40
0
 40
0
 40
0
 40
1
 40
1
 40
1
 40
1
 10
456.233783
 20
22.967554
 30
0.0
 10
456.233783
 20
15.822251
 30
0.0
 10
460.045756
 20
9.219719
 30
0.0
 10
466.233771
 20
5.647067
 30
0.0
  0
SPLINE
  5
16f
100
AcDbEntity
  8
Ebene_1
 62
7
100
AcDbSpline
 70
8
 71
3
 72
8
 73
4
 74
0
 40
0
 40
0
 40
0
 40
0
 40
1
 40
1
 40
1
 40
1
 10
466.233771
 20
5.647067
 30
0.0
 10
472.421785
 20
2.074416
 30
0.0
 10
480.045732
 20
2.074416
 30
0.0
 10
486.233746
 20
5.647067
 30
0.0
  0
SPLINE
  5
170
100
AcDbEntity
  8
Ebene_1
 62
7
100
AcDbSpline
 70
8
 71
3
 72
8
 73
4
 74
0
 40
0
 40
0
 40
0
 40
0
 40
1
 40
1
 40
1
 40
1
 10
486.233746
 20
5.647067
 30
0.0
 10
492.421760
 20
9.219719
 30
0.0
 10
496.233734
 20
15.822251
 30
0.0
 10
496.233734
 20
22.967554
 30
0.0
  0
SPLINE
  5
171
100
AcDbEntity
  8
Ebene_1
 62
7
100
AcDbSpline
 70
8
 71
3
 72
8
 73
4
 74
0
 40
0
 40
0
 40
0
 40
0
 40
1
 40
1
 40
1
 40
1
 10
480.483754
 20
22.967554
 30
0.0
 10
480.483754
 20
24.485932
 30
0.0
 10
479.673709
 20
25.888970
 30
0.0
 10
478.358756
 20
26.648159
 30
0.0
  0
SPLINE
  5
172
100
AcDbEntity
  8
Ebene_1
 62
7
100
AcDbSpline
 70
8
 71
3
 72
8
 73
4
 74
0
 40
0
 40
0
 40
0
 40
0
 40
1
 40
1
 40
1
 40
1
 10
478.358756
 20
26.648159
 30
0.0
 10
477.043803
 20
27.407347
 30
0.0
 10
475.423714
 20
27.407347
 30
0.0
 10
474.108761
 20
26.648159
 30
0.0
  0
SPLINE
  5
173
100
AcDbEntity
  8
Ebene_1
 62
7
100
AcDbSpline
 70
8
 71
3
 72
8
 73
4
 74
0
 40
0
 40
0
 40
0
 40
0
 40
1
 40
1
 40
1
 40
1
 10
474.108761
 20
26.648159
 30
0.0
 10
472.793807
 20
25.888970
 30
0.0
 10
471.983763
 20
24.485932
 30
0.0
 10
471.983763
 20
22.967554
 30
0.0
  0
SPLINE
  5
174
100
AcDbEntity
  8
Ebene_1
 62
7
100
AcDbSpline
 70
8
 71
3
 72
8
 73
4
 74
0
 40
0
 40
0
 40
0
 40
0
 40
1
 40
1
 40
1
 40
1
 10
471.983763
 20
22.967554
 30
0.0
 10
471.983763
 20
21.449177
 30
0.0
 10
472.793808
 20
20.046139
 30
0.0
 10
474.108761
 20
19.286950
 30
0.0
  0
SPLINE
  5
175
100
AcDbEntity
  8
Ebene_1
 62
7
100
AcDbSpline
 70
8
 71
3
 72
8
 73
4
 74
0
 40
0
 40
0
 40
0
 40
0
 40
1
 40
1
 40
1
 40
1
 10
474.108761
 20
19.286950
 30
0.0
 10
475.423714
 20
18.527762
 30
0.0
 10
477.043803
 20
18.527762
 30
0.0
 10
478.358756
 20
19.286950
 30
0.0
  0
SPLINE
  5
176
100
AcDbEntity
  8
Ebene_1
 62
7
100
AcDbSpline
 70
8
 71
3
 72
8
 73
4
 74
0
 40
0
 40
0
 40
0
 40
0
 40
1
 40
1
 40
1
 40
1
 10
478.358756
 20
19.286950
 30
0.0
 10
479.673709
 20
20.046139
 30
0.0
 10
480.483754
 20
21.449177
 30
0.0
 10
480.483754
 20
22.967554
 30
0.0
  0
LINE
  5
177
100
AcDbEntity
  8
Ebene_1
 62
7
100
AcDbLine
 10
480.483754
 20
22.967554
 30
0.0
 11
480.483754
 21
22.967554
 31
0.0
  0
LINE
  5
178
100
AcDbEntity
  8
Ebene_1
 62
7
100
AcDbLine
 10
457.533783
 20
195.267466
 30
0.0
 11
457.533783
 21
125.267554
 31
0.0
  0
LINE
  5
179
100
AcDbEntity
  8
Ebene_1
 62
7
100
AcDbLine
 10
497.533734
 20
125.267554
 30
0.0
 11
497.533734
 21
195.267466
 31
0.0
  0
LINE
  5
17a
100
AcDbEntity
  8
Ebene_1
 62
7
100
AcDbLine
 10
497.533734
 20
195.267466
 30
0.0
 11
457.533783
 21
195.267466
 31
0.0
  0
SPLINE
  5
17b
100
AcDbEntity
  8
Ebene_1
 62
7
100
AcDbSpline
 70
8
 71
3
 72
8
 73
4
 74
0
 40
0
 40
0
 40
0
 40
0
 40
1
 40
1
 40
1
 40
1
 10
457.533783
 20
125.267554
 30
0.0
 10
457.533783
 20
118.122251
 30
0.0
 10
461.345756
 20
111.519719
 30
0.0
 10
467.533771
 20
107.947067
 30
0.0
  0
SPLINE
  5
17c
100
AcDbEntity
  8
Ebene_1
 62
7
100
AcDbSpline
 70
8
 71
3
 72
8
 73
4
 74
0
 40
0
 40
0
 40
0
 40
0
 40
1
 40
1
 40
1
 40
1
 10
467.533771
 20
107.947067
 30
0.0
 10
473.721785
 20
104.374416
 30
0.0
 10
481.345732
 20
104.374416
 30
0.0
 10
487.533746
 20
107.947067
 30
0.0
  0
SPLINE
  5
17d
100
AcDbEntity
  8
Ebene_1
 62
7
100
AcDbSpline
 70
8
 71
3
 72
8
 73
4
 74
0
 40
0
 40
0
 40
0
 40
0
 40
1
 40
1
 40
1
 40
1
 10
487.533746
 20
107.947067
 30
0.0
 10
493.721760
 20
111.519719
 30
0.0
 10
497.533734
 20
118.122251
 30
0.0
 10
497.533734
 20
125.267554
 30
0.0
  0
SPLINE
  5
17e
100
AcDbEntity
  8
Ebene_1
 62
7
100
AcDbSpline
 70
8
 71
3
 72
8
 73
4
 74
0
 40
0
 40
0
 40
0
 40
0
 40
1
 40
1
 40
1
 40
1
 10
481.783754
 20
125.267554
 30
0.0
 10
481.783754
 20
126.785932
 30
0.0
 10
480.973709
 20
128.188970
 30
0.0
 10
479.658756
 20
128.948159
 30
0.0
  0
SPLINE
  5
17f
100
AcDbEntity
  8
Ebene_1
 62
7
100
AcDbSpline
 70
8
 71
3
 72
8
 73
4
 74
0
 40
0
 40
0
 40
0
 40
0
 40
1
 40
1
 40
1
 40
1
 10
479.658756
 20
128.948159
 30
0.0
 10
478.343803
 20
129.707347
 30
0.0
 10
476.723714
 20
129.707347
 30
0.0
 10
475.408761
 20
128.948159
 30
0.0
  0
SPLINE
  5
180
100
AcDbEntity
  8
Ebene_1
 62
7
100
AcDbSpline
 70
8
 71
3
 72
8
 73
4
 74
0
 40
0
 40
0
 40
0
 40
0
 40
1
 40
1
 40
1
 40
1
 10
475.408761
 20
128.948159
 30
0.0
 10
474.093807
 20
128.188970
 30
0.0
 10
473.283763
 20
126.785932
 30
0.0
 10
473.283763
 20
125.267554
 30
0.0
  0
SPLINE
  5
181
100
AcDbEntity
  8
Ebene_1
 62
7
100
AcDbSpline
 70
8
 71
3
 72
8
 73
4
 74
0
 40
0
 40
0
 40
0
 40
0
 40
1
 40
1
 40
1
 40
1
 10
473.283763
 20
125.267554
 30
0.0
 10
473.283763
 20
123.749177
 30
0.0
 10
474.093808
 20
122.346139
 30
0.0
 10
475.408761
 20
121.586950
 30
0.0
  0
SPLINE
  5
182
100
AcDbEntity
  8
Ebene_1
 62
7
100
AcDbSpline
 70
8
 71
3
 72
8
 73
4
 74
0
 40
0
 40
0
 40
0
 40
0
 40
1
 40
1
 40
1
 40
1
 10
475.408761
 20
121.586950
 30
0.0
 10
476.723714
 20
120.827762
 30
0.0
 10
478.343803
 20
120.827762
 30
0.0
 10
479.658756
 20
121.586950
 30
0.0
  0
SPLINE
  5
183
100
AcDbEntity
  8
Ebene_1
 62
7
100
AcDbSpline
 70
8
 71
3
 72
8
 73
4
 74
0
 40
0
 40
0
 40
0
 40
0
 40
1
 40
1
 40
1
 40
1
 10
479.658756
 20
121.586950
 30
0.0
 10
480.973709
 20
122.346139
 30
0.0
 10
481.783754
 20
123.749177
 30
0.0
 10
481.783754
 20
125.267554
 30
0.0
  0
LINE
  5
184
100
AcDbEntity
  8
Ebene_1
 62
7
100
AcDbLine
 10
481.783754
 20
125.267554
 30
0.0
 11
481.783754
 21
125.267554
 31
0.0
  0
ENDSEC
  0
SECTION
  2
OBJECTS
  0
DICTIONARY
  5
C
330
0
100
AcDbDictionary
  3
ACAD_GROUP
350
D
  3
ACAD_MLINESTYLE
350
17
  0
DICTIONARY
  5
D
330
C
100
AcDbDictionary
  0
DICTIONARY
  5
1A
330
C
100
AcDbDictionary
  0
DICTIONARY
  5
17
330
C
100
AcDbDictionary
  3
STANDARD
350
18
  0
DICTIONARY
  5
19
330
C
100
AcDbDictionary
  0
ENDSEC
  0
EOF
